# xmcd
#
# Track frame offsets:
#	150
#	16158
#	33415
#	48955
#	70825
#	85569
#	102338
#	119747
#	135396
#	151718
#	168132
#	185963
#
# Disc length: 2684 seconds
#
# Revision: 3
# Processed by: cddbd v1.5.2PL0 Copyright (c) Steve Scherf et al.
# Submitted via: EZCDAudioConverter 7.1.5.1
#
DISCID=910a7a0c
DTITLE=吉馬大對唱 - 吉馬大對唱 10 CD 典藏版
DYEAR=20110616
DGENRE=
TTITLE0=愛拼才會贏
TTITLE1=最後的探戈
TTITLE2=可愛的馬
TTITLE3=子連郎
TTITLE4=一杯美酒
TTITLE5=心甘情願
TTITLE6=唱抹煞
TTITLE7=癡情花
TTITLE8=燒酒話
TTITLE9=成功的條件
TTITLE10=初戀
TTITLE11=用生命所愛的人
EXTD=
EXTT0=
EXTT1=
EXTT2=
EXTT3=
EXTT4=
EXTT5=
EXTT6=
EXTT7=
EXTT8=
EXTT9=
EXTT10=
EXTT11=
PLAYORDER=
